<?xml version="1.0" encoding="UTF-8" standalone="no"?>
<svg
   xmlns:dc="http://purl.org/dc/elements/1.1/"
   xmlns:cc="http://creativecommons.org/ns#"
   xmlns:rdf="http://www.w3.org/1999/02/22-rdf-syntax-ns#"
   xmlns:svg="http://www.w3.org/2000/svg"
   xmlns="http://www.w3.org/2000/svg"
   xmlns:xlink="http://www.w3.org/1999/xlink"
   xmlns:sodipodi="http://sodipodi.sourceforge.net/DTD/sodipodi-0.dtd"
   xmlns:inkscape="http://www.inkscape.org/namespaces/inkscape"
   width="77.05378mm"
   height="68.038773mm"
   viewBox="0 0 77.05378 68.038773"
   version="1.1"
   id="svg2558"
   inkscape:version="1.0.2 (394de47547, 2021-03-26)"
   sodipodi:docname="logo-3.svg">
  <defs
     id="defs2552">
    <linearGradient
       inkscape:collect="always"
       xlink:href="#linear-gradient"
       id="linearGradient2549"
       gradientUnits="userSpaceOnUse"
       gradientTransform="matrix(0.99696658,0,0,-0.99696658,0.00219969,1443.9203)"
       x1="70.18"
       y1="1203.5"
       x2="210.56"
       y2="1446.62" />
    <linearGradient
       id="linear-gradient"
       x1="70.18"
       y1="1203.5"
       x2="210.56"
       y2="1446.62"
       gradientTransform="matrix(1,0,0,-1,389.65945,1884.0212)"
       gradientUnits="userSpaceOnUse">
      <stop
         offset="0"
         stop-color="#ffdc00"
         id="stop4" />
      <stop
         offset="0.33"
         stop-color="#e58e2f"
         id="stop6" />
      <stop
         offset="0.67"
         stop-color="#db2d72"
         id="stop8" />
      <stop
         offset="1"
         stop-color="#f0f"
         id="stop10" />
    </linearGradient>
  </defs>
  <sodipodi:namedview
     id="base"
     pagecolor="#ffffff"
     bordercolor="#666666"
     borderopacity="1.0"
     inkscape:pageopacity="0.0"
     inkscape:pageshadow="2"
     inkscape:zoom="0.32"
     inkscape:cx="-105.97748"
     inkscape:cy="-173.31448"
     inkscape:document-units="mm"
     inkscape:current-layer="layer1"
     inkscape:document-rotation="0"
     showgrid="false"
     inkscape:window-width="1920"
     inkscape:window-height="964"
     inkscape:window-x="0"
     inkscape:window-y="27"
     inkscape:window-maximized="1"
     fit-margin-top="0"
     fit-margin-left="0"
     fit-margin-right="0"
     fit-margin-bottom="0" />
  <metadata
     id="metadata2555">
    <rdf:RDF>
      <cc:Work
         rdf:about="">
        <dc:format>image/svg+xml</dc:format>
        <dc:type
           rdf:resource="http://purl.org/dc/dcmitype/StillImage" />
        <dc:title></dc:title>
      </cc:Work>
    </rdf:RDF>
  </metadata>
  <g
     inkscape:label="Layer 1"
     inkscape:groupmode="layer"
     id="layer1"
     transform="translate(-66.473269,-114.47255)">
    <path
       id="path1658-4-9-8"
       style="opacity:0.9935;fill:url(#linearGradient2549);stroke:none;stroke-width:0.996971"
       d="M 204.23828,0 75.623047,0.00390625 C 71.576382,0.21782751 67.872967,2.346621 65.652344,5.7363281 L 1.3691406,117.1582 c -1.59862239,3.15178 -1.79667499,6.80574 -0.59374998,10.08203 -1.17932256,-3.26161 -0.97783279,-6.8923 0.61132818,-10.02539 L 65.671875,5.7949219 C 67.892461,2.4052148 71.595876,0.27642126 75.642578,0.0625 h 128.611332 0.002 c 4.04659,0.21388346 7.75019,2.3427148 9.9707,5.7324219 l 5.36719,9.3066401 c -4.3228,0.0087 -8.64696,0.0064 -12.96484,0.07031 -3.83853,0.463106 -6.91841,3.05526 -6.58203,5.751953 -0.0378,5.039887 -6.4e-4,10.079141 -0.0195,15.119141 V 245.75391 h 4.24805 c 4.04659,-0.21393 7.75012,-2.34276 9.9707,-5.73243 l 64.28516,-111.4121 c 1.81459,-3.59921 1.81459,-7.84604 0,-11.44532 l -0.0703,-0.01 L 214.20703,5.7324219 C 211.98652,2.3427148 208.28491,0.21388346 204.23828,0 Z m -31.95117,83.59375 c -0.2558,-0.0076 -0.51139,5.07e-4 -0.76953,0.01563 -2.8131,-0.01134 -5.62647,-0.01172 -8.43946,-0.01172 -18.7449,0.02986 -37.48984,-0.03602 -56.23437,0.07813 -3.94598,0.407207 -7.150261,3.206295 -6.79687,6.107422 -0.0416,5.309896 -6.4e-4,10.619718 -0.0195,15.929688 v 140.03906 h 13.31641 l 18.02148,0.0156 -0.0273,0.0469 h 24.55664 a 5.9120118,5.9120118 0 0 0 0.31641,-0.0312 l 23.81836,0.0195 c -0.0102,-52.33269 2.8e-4,-104.66528 -0.0488,-156.998043 -0.35921,-2.78143 -3.85646,-5.131946 -7.69336,-5.210938 z M 37.462891,148.2832 c -8.230685,0.003 -16.4611,0.0244 -24.691407,0.0645 l 3.341797,5.78711 h 0.0098 l 9.322265,16.14062 a 5.9817997,5.9817997 0 0 0 0.115235,0.24414 l 10.546875,18.21875 29.699219,51.42188 c 2.204522,3.2731 5.804071,5.33788 9.742187,5.59179 h 4.480469 c -0.0097,-30.48126 0.04178,-60.9633 -0.08398,-91.44336 -0.527588,-3.44821 -4.367895,-6.27445 -8.382812,-6.00195 -1.160693,-0.034 -2.321427,-0.0117 -3.482422,-0.0117 -10.205405,0 -20.411783,-0.0117 -30.617187,-0.0117 z"
       transform="matrix(0.26458333,0,0,0.26458333,67.972657,115.97257)" />
    <path
       id="path1658-4-9-8-3"
       style="opacity:0.9935;fill:none;stroke:#000000;stroke-width:3;stroke-miterlimit:4;stroke-dasharray:none;stroke-opacity:1"
       d="m 87.981361,115.97357 c -1.07068,0.0566 -2.0503,0.61986 -2.63784,1.51672 L 68.334842,146.9704 c -0.48271,0.95169 -0.48271,2.07663 0,3.02835 l 3.90107,6.75523 c 0,0 0,0 0.003,0 l 2.46626,4.27043 a 1.5826845,1.5826845 0 0 0 0.0304,0.0649 l 2.79082,4.82018 7.857779,13.60532 c 0.58328,0.86601 1.53556,1.41245 2.57752,1.47963 h 10.00001 l 4.768129,0.004 -0.007,0.0124 h 6.49716 a 1.5642198,1.5642198 0 0 0 0.0834,-0.008 l 10.24882,0.008 c 0.003,-0.003 -0.005,-0.0119 -0.005,-0.0159 h 2.4737 c 1.07066,-0.0566 2.05028,-0.6199 2.63781,-1.51675 l 17.00869,-29.4775 c 0.48011,-0.95229 0.48011,-2.076 0,-3.02831 l -0.0185,-0.003 -17.00046,-29.48011 c -0.58751,-0.89686 -1.56715,-1.46013 -2.63782,-1.51672 z"
       inkscape:export-xdpi="70"
       inkscape:export-ydpi="70" />
  </g>
</svg>
