<?xml version="1.0" encoding="UTF-8" standalone="no"?>
<svg
   xmlns:dc="http://purl.org/dc/elements/1.1/"
   xmlns:cc="http://creativecommons.org/ns#"
   xmlns:rdf="http://www.w3.org/1999/02/22-rdf-syntax-ns#"
   xmlns:svg="http://www.w3.org/2000/svg"
   xmlns="http://www.w3.org/2000/svg"
   xmlns:xlink="http://www.w3.org/1999/xlink"
   xmlns:sodipodi="http://sodipodi.sourceforge.net/DTD/sodipodi-0.dtd"
   xmlns:inkscape="http://www.inkscape.org/namespaces/inkscape"
   width="79.053177mm"
   height="70.039101mm"
   viewBox="0 0 79.053177 70.039101"
   version="1.1"
   id="svg3330"
   inkscape:version="1.0.2 (394de47547, 2021-03-26)"
   sodipodi:docname="logo-2.svg">
  <defs
     id="defs3324">
    <linearGradient
       inkscape:collect="always"
       xlink:href="#linear-gradient"
       id="linearGradient3287"
       x1="197.40141"
       y1="141.67496"
       x2="276.45462"
       y2="141.67496"
       gradientUnits="userSpaceOnUse"
       gradientTransform="translate(-131.92802,6.8250513)" />
    <linearGradient
       id="linear-gradient"
       x1="70.18"
       y1="1203.5"
       x2="210.56"
       y2="1446.62"
       gradientTransform="matrix(1,0,0,-1,389.65945,1884.0212)"
       gradientUnits="userSpaceOnUse">
      <stop
         offset="0"
         stop-color="#ffdc00"
         id="stop4" />
      <stop
         offset="0.33"
         stop-color="#e58e2f"
         id="stop6" />
      <stop
         offset="0.67"
         stop-color="#db2d72"
         id="stop8" />
      <stop
         offset="1"
         stop-color="#f0f"
         id="stop10" />
    </linearGradient>
  </defs>
  <sodipodi:namedview
     id="base"
     pagecolor="#ffffff"
     bordercolor="#666666"
     borderopacity="1.0"
     inkscape:pageopacity="0.0"
     inkscape:pageshadow="2"
     inkscape:zoom="0.35"
     inkscape:cx="152.54145"
     inkscape:cy="131.09752"
     inkscape:document-units="mm"
     inkscape:current-layer="layer1"
     inkscape:document-rotation="0"
     showgrid="false"
     fit-margin-top="0"
     fit-margin-left="0"
     fit-margin-right="0"
     fit-margin-bottom="0"
     inkscape:window-width="1515"
     inkscape:window-height="964"
     inkscape:window-x="50"
     inkscape:window-y="27"
     inkscape:window-maximized="0" />
  <metadata
     id="metadata3327">
    <rdf:RDF>
      <cc:Work
         rdf:about="">
        <dc:format>image/svg+xml</dc:format>
        <dc:type
           rdf:resource="http://purl.org/dc/dcmitype/StillImage" />
        <dc:title></dc:title>
      </cc:Work>
    </rdf:RDF>
  </metadata>
  <g
     inkscape:label="Layer 1"
     inkscape:groupmode="layer"
     id="layer1"
     transform="translate(-65.473408,-113.48045)">
    <path
       id="path1658-4-9-8-3-6"
       style="opacity:0.9935;fill:none;stroke:url(#linearGradient3287);stroke-width:5;stroke-miterlimit:4;stroke-dasharray:none;stroke-opacity:1"
       d="m 87.981195,115.98147 c -1.07068,0.0566 -2.0503,0.61986 -2.63784,1.51672 l -17.00868,29.48011 c -0.48271,0.95169 -0.48271,2.07663 0,3.02835 l 3.90107,6.75523 c 0,0 0,0 0.003,0 l 2.46626,4.27043 a 1.5826845,1.5826845 0 0 0 0.0304,0.0649 l 2.79082,4.82018 7.85778,13.60532 c 0.58328,0.86601 1.53556,1.41245 2.57752,1.47963 h 10.00001 l 4.768125,0.004 -0.007,0.0124 h 6.49716 a 1.5642198,1.5642198 0 0 0 0.0834,-0.008 l 10.24882,0.008 c 0.003,-0.003 -0.005,-0.0119 -0.005,-0.0159 h 2.4737 c 1.07066,-0.0566 2.05028,-0.6199 2.63781,-1.51675 l 17.00869,-29.4775 c 0.48011,-0.95229 0.48011,-2.076 0,-3.02831 l -0.0185,-0.003 -17.00046,-29.48011 c -0.58751,-0.89686 -1.56715,-1.46013 -2.63782,-1.51672 z"
       inkscape:export-xdpi="70"
       inkscape:export-ydpi="70" />
  </g>
</svg>
