<?xml version="1.0" encoding="UTF-8" standalone="no"?>
<svg
   xmlns:dc="http://purl.org/dc/elements/1.1/"
   xmlns:cc="http://creativecommons.org/ns#"
   xmlns:rdf="http://www.w3.org/1999/02/22-rdf-syntax-ns#"
   xmlns:svg="http://www.w3.org/2000/svg"
   xmlns="http://www.w3.org/2000/svg"
   xmlns:xlink="http://www.w3.org/1999/xlink"
   xmlns:sodipodi="http://sodipodi.sourceforge.net/DTD/sodipodi-0.dtd"
   xmlns:inkscape="http://www.inkscape.org/namespaces/inkscape"
   width="74.054688mm"
   height="65.054863mm"
   viewBox="0 0 74.054688 65.054863"
   version="1.1"
   id="svg2558"
   inkscape:version="1.0.2 (394de47547, 2021-03-26)"
   sodipodi:docname="logo-1.svg">
  <defs
     id="defs2552">
    <linearGradient
       id="linear-gradient"
       x1="70.18"
       y1="1203.5"
       x2="210.56"
       y2="1446.62"
       gradientTransform="matrix(1,0,0,-1,389.65945,1884.0212)"
       gradientUnits="userSpaceOnUse">
      <stop
         offset="0"
         stop-color="#ffdc00"
         id="stop4" />
      <stop
         offset="0.33"
         stop-color="#e58e2f"
         id="stop6" />
      <stop
         offset="0.67"
         stop-color="#db2d72"
         id="stop8" />
      <stop
         offset="1"
         stop-color="#f0f"
         id="stop10" />
    </linearGradient>
    <linearGradient
       inkscape:collect="always"
       xlink:href="#linear-gradient"
       id="linearGradient848"
       x1="67.972656"
       y1="148.49171"
       x2="142.02734"
       y2="148.49171"
       gradientUnits="userSpaceOnUse" />
  </defs>
  <sodipodi:namedview
     id="base"
     pagecolor="#ffffff"
     bordercolor="#666666"
     borderopacity="1.0"
     inkscape:pageopacity="0.0"
     inkscape:pageshadow="2"
     inkscape:zoom="0.98994949"
     inkscape:cx="200.16918"
     inkscape:cy="189.48086"
     inkscape:document-units="mm"
     inkscape:current-layer="layer1"
     inkscape:document-rotation="0"
     showgrid="false"
     inkscape:window-width="1920"
     inkscape:window-height="964"
     inkscape:window-x="0"
     inkscape:window-y="27"
     inkscape:window-maximized="1"
     fit-margin-top="0"
     fit-margin-left="0"
     fit-margin-right="0"
     fit-margin-bottom="0" />
  <metadata
     id="metadata2555">
    <rdf:RDF>
      <cc:Work
         rdf:about="">
        <dc:format>image/svg+xml</dc:format>
        <dc:type
           rdf:resource="http://purl.org/dc/dcmitype/StillImage" />
        <dc:title />
      </cc:Work>
    </rdf:RDF>
  </metadata>
  <g
     inkscape:label="Layer 1"
     inkscape:groupmode="layer"
     id="layer1"
     transform="translate(-67.972657,-115.97257)">
    <path
       style="color:#000000;font-style:normal;font-variant:normal;font-weight:normal;font-stretch:normal;font-size:medium;line-height:normal;font-family:sans-serif;font-variant-ligatures:normal;font-variant-position:normal;font-variant-caps:normal;font-variant-numeric:normal;font-variant-alternates:normal;font-variant-east-asian:normal;font-feature-settings:normal;font-variation-settings:normal;text-indent:0;text-align:start;text-decoration:none;text-decoration-line:none;text-decoration-style:solid;text-decoration-color:#000000;letter-spacing:normal;word-spacing:normal;text-transform:none;writing-mode:lr-tb;direction:ltr;text-orientation:mixed;dominant-baseline:auto;baseline-shift:baseline;text-anchor:start;white-space:normal;shape-padding:0;shape-margin:0;inline-size:0;clip-rule:nonzero;display:inline;overflow:visible;visibility:visible;isolation:auto;mix-blend-mode:normal;color-interpolation:sRGB;color-interpolation-filters:linearRGB;solid-color:#000000;solid-opacity:1;vector-effect:none;fill:url(#linearGradient848);fill-opacity:1.0;fill-rule:nonzero;stroke-width:0.263782;stroke-linecap:butt;stroke-linejoin:miter;stroke-miterlimit:4;stroke-dasharray:none;stroke-dashoffset:0;stroke-opacity:1;color-rendering:auto;image-rendering:auto;shape-rendering:auto;text-rendering:auto;enable-background:accumulate;stop-color:#000000;stop-opacity:1;stroke:none;opacity:0.9935"
       d="m 87.981209,115.97359 c -1.07068,0.0566 -2.0503,0.61986 -2.63784,1.51672 l -17.00868,29.48011 c -0.48271,0.95169 -0.48271,2.07663 0,3.02835 l 3.90107,6.75523 h 0.003 l 2.46626,4.27043 c 0.0096,0.0219 0.01978,0.0435 0.0304,0.0649 l 2.79082,4.82018 7.85778,13.60532 c 0.58328,0.86601 1.53556,1.41245 2.57752,1.47963 H 97.96155 l 4.76813,0.004 -0.007,0.0124 h 6.49716 c 0.0279,-0.002 0.0557,-0.005 0.0834,-0.008 l 10.24882,0.008 c 0.003,-0.003 -0.005,-0.0119 -0.005,-0.0159 h 2.4737 c 1.07066,-0.0566 2.05028,-0.6199 2.63781,-1.51675 l 17.00869,-29.4775 c 0.48011,-0.95229 0.48011,-2.076 0,-3.02831 l -0.0185,-0.003 -17.00046,-29.48011 c -0.58751,-0.89686 -1.56715,-1.46013 -2.63782,-1.51672 z"
       id="path1658-4-9-8" />
    <path
       id="path1658-4-1-8"
       style="opacity:0.9935;fill:#1a1a1a;stroke-width:0.263782"
       d="M 122.01497,115.98911 H 87.986559 c -1.07069,0.0566 -2.05055,0.61984 -2.63808,1.5167 l -17.00879,29.47985 c -0.48271,0.95168 -0.48271,2.07705 0,3.02876 l 3.00807,5.20846 c 2.17898,-0.0106 4.35801,-0.0161 6.53709,-0.0169 2.70018,0 5.40062,0.003 8.1008,0.003 v 0 c 0.30718,0 0.61428,-0.006 0.92138,0.003 1.06228,-0.0721 2.07836,0.67567 2.217951,1.58801 0.0333,8.07037 0.0196,16.14127 0.0222,24.21196 h 5.29113 v -37.06958 c 0.005,-1.40493 -0.006,-2.80979 0.005,-4.2147 -0.0935,-0.76759 0.7543,-1.50821 1.79834,-1.61595 4.95949,-0.0302 9.9191,-0.0127 14.87869,-0.0206 v 0 c 0.74427,0 1.48862,0 2.23292,0.003 0.0683,-0.004 0.13592,-0.006 0.2036,-0.004 1.01518,0.0209 1.94051,0.6428 2.03555,1.37872 0.013,13.85189 0.0103,27.70372 0.013,41.55559 l 3.95171,0.003 c 0.003,-0.003 -0.005,-0.0122 -0.005,-0.0161 h 1.34464 v -55.50221 c 0.005,-1.3335 -0.005,-2.66682 0.005,-4.00029 -0.089,-0.7135 0.72588,-1.39933 1.74149,-1.52186 1.14244,-0.0169 2.28655,-0.0167 3.43029,-0.019 l -1.42007,-2.46237 c -0.58751,-0.89686 -1.56742,-1.4601 -2.63808,-1.51669 z"
       inkscape:export-xdpi="70"
       inkscape:export-ydpi="70" />
  </g>
</svg>
