<?xml version="1.0" encoding="UTF-8" standalone="no"?>
<svg
   xmlns:dc="http://purl.org/dc/elements/1.1/"
   xmlns:cc="http://creativecommons.org/ns#"
   xmlns:rdf="http://www.w3.org/1999/02/22-rdf-syntax-ns#"
   xmlns:svg="http://www.w3.org/2000/svg"
   xmlns="http://www.w3.org/2000/svg"
   xmlns:xlink="http://www.w3.org/1999/xlink"
   xmlns:sodipodi="http://sodipodi.sourceforge.net/DTD/sodipodi-0.dtd"
   xmlns:inkscape="http://www.inkscape.org/namespaces/inkscape"
   width="74.05481mm"
   height="65.038643mm"
   viewBox="0 0 74.05481 65.038643"
   version="1.1"
   id="svg3416"
   inkscape:version="1.0.2 (394de47547, 2021-03-26)"
   sodipodi:docname="logo-4.svg">
  <defs
     id="defs3410">
    <linearGradient
       id="linear-gradient"
       x1="70.18"
       y1="1203.5"
       x2="210.56"
       y2="1446.62"
       gradientTransform="matrix(1,0,0,-1,389.65945,1884.0212)"
       gradientUnits="userSpaceOnUse">
      <stop
         offset="0"
         stop-color="#ffdc00"
         id="stop4" />
      <stop
         offset="0.33"
         stop-color="#e58e2f"
         id="stop6" />
      <stop
         offset="0.67"
         stop-color="#db2d72"
         id="stop8" />
      <stop
         offset="1"
         stop-color="#f0f"
         id="stop10" />
    </linearGradient>
    <linearGradient
       inkscape:collect="always"
       xlink:href="#linear-gradient"
       id="linearGradient3356-3"
       x1="80.00071"
       y1="242.90723"
       x2="219.89227"
       y2="2.9072261"
       gradientUnits="userSpaceOnUse"
       gradientTransform="matrix(0.26458333,0,0,0.26458333,150.44869,241.89151)" />
  </defs>
  <sodipodi:namedview
     id="base"
     pagecolor="#ffffff"
     bordercolor="#666666"
     borderopacity="1.0"
     inkscape:pageopacity="0.0"
     inkscape:pageshadow="2"
     inkscape:zoom="0.7"
     inkscape:cx="60.293657"
     inkscape:cy="-77.843079"
     inkscape:document-units="mm"
     inkscape:current-layer="layer1"
     inkscape:document-rotation="0"
     showgrid="false"
     fit-margin-top="0"
     fit-margin-left="0"
     fit-margin-right="0"
     fit-margin-bottom="0"
     inkscape:window-width="1920"
     inkscape:window-height="964"
     inkscape:window-x="0"
     inkscape:window-y="27"
     inkscape:window-maximized="1" />
  <metadata
     id="metadata3413">
    <rdf:RDF>
      <cc:Work
         rdf:about="">
        <dc:format>image/svg+xml</dc:format>
        <dc:type
           rdf:resource="http://purl.org/dc/dcmitype/StillImage" />
        <dc:title />
      </cc:Work>
    </rdf:RDF>
  </metadata>
  <g
     inkscape:label="Layer 1"
     inkscape:groupmode="layer"
     id="layer1"
     transform="translate(-150.44887,-241.89113)">
    <path
       id="path1658-4-9-8-5"
       style="opacity:0.9935;fill:url(#linearGradient3356-3);fill-opacity:1;stroke:none;stroke-width:0.263782;stroke-opacity:1"
       d="m 204.48673,241.89151 -34.02944,10e-4 c -1.07068,0.0566 -2.05054,0.61985 -2.63808,1.51671 l -17.00827,29.48037 c -0.42297,0.83391 -0.47537,1.80068 -0.15709,2.66753 -0.31203,-0.86296 -0.25872,-1.82358 0.16174,-2.65255 l 17.00878,-29.47985 c 0.58753,-0.89686 1.5674,-1.4601 2.63809,-1.5167 h 34.02841 5.3e-4 c 1.07066,0.0566 2.05057,0.61984 2.63808,1.5167 l 1.42007,2.46238 c -1.14374,0.002 -2.28784,0.002 -3.43028,0.0186 -1.01561,0.12253 -1.8305,0.80838 -1.7415,1.52188 -0.01,1.33347 -1.7e-4,2.66677 -0.005,4.00027 v 55.48602 h 1.12397 c 1.07066,-0.0566 2.05055,-0.61986 2.63808,-1.51671 l 17.00878,-29.47778 c 0.48011,-0.95229 0.48011,-2.07593 0,-3.02824 l -0.0186,-0.003 -17.00054,-29.48031 c -0.58751,-0.89686 -1.56689,-1.46011 -2.63757,-1.5167 z m -8.45374,22.11751 c -0.0677,-0.002 -0.13531,1.4e-4 -0.20361,0.004 -0.7443,-0.003 -1.48867,-0.003 -2.23294,-0.003 -4.95959,0.008 -9.91918,-0.01 -14.87867,0.0207 -1.04405,0.10774 -1.89184,0.84833 -1.79834,1.61592 -0.011,1.40491 -1.7e-4,2.8098 -0.005,4.21473 v 37.052 h 3.5233 l 4.76818,0.004 -0.007,0.0124 h 6.49728 a 1.5642198,1.5642198 0 0 0 0.0837,-0.008 l 6.30194,0.005 c -0.003,-13.84635 8e-5,-27.69269 -0.0129,-41.53906 -0.095,-0.73592 -1.02035,-1.35783 -2.03553,-1.37873 z m -35.67224,17.11575 c -2.17771,8e-4 -4.35534,0.006 -6.53294,0.0171 l 0.88419,1.53117 h 0.003 l 2.46651,4.27054 a 1.5826845,1.5826845 0 0 0 0.0305,0.0646 l 2.79053,4.82037 7.85792,13.60538 c 0.58328,0.866 1.53566,1.41231 2.57762,1.47949 h 1.18546 c -0.003,-8.06483 0.0111,-16.12987 -0.0222,-24.19439 -0.13959,-0.91234 -1.15568,-1.66011 -2.21796,-1.58801 -0.3071,-0.009 -0.61421,-0.003 -0.92139,-0.003 -2.70018,0 -5.40061,-0.003 -8.10079,-0.003 z"
       inkscape:export-xdpi="70"
       inkscape:export-ydpi="70" />
  </g>
</svg>
